<svg xmlns="http://www.w3.org/2000/svg" width="512" height="512" viewBox="0 0 512 512">
  <defs>
    <linearGradient id="g" x1="0" x2="1" y1="0" y2="1">
      <stop offset="0%" stop-color="#63b7ff"/>
      <stop offset="100%" stop-color="#7d79ff"/>
    </linearGradient>
  </defs>
  <rect width="512" height="512" rx="110" fill="#0f1722"/>
  <rect x="88" y="72" width="336" height="368" rx="42" fill="url(#g)"/>
  <rect x="132" y="130" width="248" height="28" rx="14" fill="#ffffff" opacity="0.95"/>
  <rect x="132" y="192" width="210" height="22" rx="11" fill="#ffffff" opacity="0.92"/>
  <rect x="132" y="240" width="248" height="22" rx="11" fill="#ffffff" opacity="0.92"/>
  <rect x="132" y="288" width="180" height="22" rx="11" fill="#ffffff" opacity="0.92"/>
  <path d="M334 366l54-54 23 23-54 54-35 12z" fill="#ffd166"/>
  <path d="M388 312l12-12c8-8 21-8 29 0l6 6c8 8 8 21 0 29l-12 12z" fill="#f4a261"/>
</svg>
